<svg width="64" height="64" xmlns="http://www.w3.org/2000/svg">

 <g>
  <path id="svg_1" d="m49,19.999l0,32.001l-36,0c-2.761,0 -5,-2.239 -5,-5l0,-32c0,-2.209 1.791,-4 4,-4l11.046,0c1.756,0 3.307,1.145 3.823,2.824l0.234,0.761c0.258,0.839 1.033,1.412 1.911,1.412l15.986,0.003c2.21,0 4,1.79 4,3.999z" fill="orange"/>
  <ellipse id="svg_2" ry="3" rx="22.563" opacity="0.3" cy="60.993" cx="32"/>
  <rect stroke="#000" rx="3" stroke-width="0" id="svg_4" height="31.54253" width="42.24664" y="19.11867" x="11.5235" fill="#fff"/>
  <path id="svg_3" d="m55.22,23l-30.52,0c-3.319,0 -6.182,2.331 -6.855,5.582l-4.845,23.418l36.3,0c3.319,0 6.182,-2.331 6.855,-5.582l3.674,-17.758c0.604,-2.921 -1.626,-5.66 -4.609,-5.66z" fill="#ffce29"/>
  <g id="svg_13">
   <rect stroke="#000" rx="0.5" id="svg_8" height="0.71225" width="10.41722" y="20.32172" x="41.104" stroke-width="0" fill="#cccccc"/>
   <rect stroke="#000" rx="0.5" id="svg_11" height="0.71225" width="6.9919" y="21.49758" x="44.63157" stroke-width="0" fill="#cccccc"/>
  </g>
 </g>
</svg>