<svg
            xmlns="http://www.w3.org/2000/svg"
            x="0px"
            y="0px"
            width="94"
            height="94"
            viewBox="0 0 64 64"
          >
            <path
              fill="orange"
              d="M49,19.999V52H13c-2.761,0-5-2.239-5-5V15c0-2.209,1.791-4,4-4h11.046c1.756,0,3.307,1.145,3.823,2.824l0.234,0.761c0.258,0.839,1.033,1.412,1.911,1.412l15.986,0.003C47.21,16,49,17.79,49,19.999z"
            ></path>
            <ellipse
              cx="32"
              cy="60.993"
              opacity=".3"
              rx="22.563"
              ry="3"
            ></ellipse>
            <path
              fill="#ffce29"
              d="M55.22,23H24.7c-3.319,0-6.182,2.331-6.855,5.582L13,52h36.3c3.319,0,6.182-2.331,6.855-5.582l3.674-17.758C60.433,25.739,58.203,23,55.22,23z"
            ></path>
          </svg>